<svg width="175" height="97" xmlns="http://www.w3.org/2000/svg"><script xmlns="" type="text/javascript" charset="utf-8" id="zm-extension"/><path d="M174.583 68.951a2.867 2.867 0 00-2.462-1.397h-51.11a2.87 2.87 0 00-2.872 2.873 2.87 2.87 0 002.873 2.873h46.321l-.952 1.786c-1.132 2.118-5.6 4.49-9.88 4.49h-46.08a32.28 32.28 0 001.972-11.149c0-5.531-1.38-10.708-3.78-15.164h26.189a2.87 2.87 0 002.873-2.873 2.87 2.87 0 00-2.873-2.873h-30.2c-3.025-3.397-6.782-6.01-10.99-7.543V11.037c0-4.597-2.85-8.732-7.441-10.788a2.892 2.892 0 00-2.35 0c-4.59 2.056-7.44 6.191-7.44 10.788v28.937c-4.209 1.532-7.96 4.146-10.991 7.543h-30.2a2.87 2.87 0 00-2.872 2.873 2.87 2.87 0 002.873 2.873h26.188c-2.394 4.45-3.78 9.633-3.78 15.164 0 3.938.704 7.7 1.972 11.148H13.49c-4.286 0-8.753-2.371-9.88-4.49L2.66 73.3h46.39a2.87 2.87 0 002.872-2.873 2.87 2.87 0 00-2.873-2.873H-2.129a2.876 2.876 0 00-2.535 4.225l3.205 6.01c2.254 4.22 8.822 7.532 14.95 7.532h12.287a11.884 11.884 0 00-1.741 6.208c0 6.59 5.363 11.953 11.954 11.953 6.59 0 11.953-5.362 11.953-11.953 0-2.27-.636-4.4-1.74-6.208h16.178c4.94 7.892 13.232 13.086 22.617 13.086 9.385 0 17.677-5.194 22.617-13.086h16.178a11.884 11.884 0 00-1.74 6.208c0 6.59 5.363 11.953 11.953 11.953 6.591 0 11.954-5.362 11.954-11.953 0-2.27-.637-4.4-1.74-6.208h12.285c6.135 0 12.697-3.307 14.95-7.531l3.206-6.011a2.862 2.862 0 00-.073-2.828h-.006zM42.203 91.53a6.212 6.212 0 01-6.207 6.208 6.212 6.212 0 01-6.208-6.208 6.212 6.212 0 016.208-6.208 6.212 6.212 0 016.208 6.208zm39.923-80.492c0-1.916 1.076-3.712 2.873-4.901 1.797 1.194 2.873 2.985 2.873 4.9v27.58a25.544 25.544 0 00-2.873-.163c-.969 0-1.927.057-2.873.164v-27.58zM85 92.66c-11.937 0-21.648-10.872-21.648-24.234 0-13.362 9.711-24.234 21.648-24.234s21.648 10.872 21.648 24.234c0 13.362-9.711 24.234-21.648 24.234zm55.21-1.132a6.212 6.212 0 01-6.207 6.208 6.212 6.212 0 01-6.208-6.208 6.212 6.212 0 016.208-6.208 6.212 6.212 0 016.207 6.208zM96.181 57.544H73.817a2.87 2.87 0 00-2.873 2.873 2.87 2.87 0 002.873 2.873h22.364a2.87 2.87 0 002.873-2.873 2.87 2.87 0 00-2.873-2.873z" fill="#DADEE6" fill-rule="nonzero"/></svg>